<svg width="50" height="100" viewBox="0 0 50 100" fill="none" xmlns="http://www.w3.org/2000/svg">
<rect width="50" height="100" fill="black" fill-opacity="0.25"/>
<path fill-rule="evenodd" clip-rule="evenodd" d="M34.5804 31.8507C34.7134 31.9834 34.8189 32.141 34.8909 32.3145C34.9629 32.488 35 32.674 35 32.8619C35 33.0498 34.9629 33.2358 34.8909 33.4093C34.8189 33.5828 34.7134 33.7404 34.5804 33.8731L18.4502 50.0004L34.5804 66.1277C34.8486 66.3959 34.9993 66.7596 34.9993 67.1389C34.9993 67.5181 34.8486 67.8819 34.5804 68.15C34.3122 68.4182 33.9485 68.5689 33.5692 68.5689C33.19 68.5689 32.8263 68.4182 32.5581 68.15L15.4196 51.0115C15.2866 50.8789 15.1811 50.7213 15.1091 50.5478C15.0371 50.3742 15 50.1882 15 50.0004C15 49.8125 15.0371 49.6265 15.1091 49.453C15.1811 49.2795 15.2866 49.1219 15.4196 48.9892L32.5581 31.8507C32.6907 31.7177 32.8483 31.6122 33.0219 31.5402C33.1954 31.4682 33.3814 31.4311 33.5692 31.4311C33.7571 31.4311 33.9431 31.4682 34.1166 31.5402C34.2901 31.6122 34.4477 31.7177 34.5804 31.8507Z" fill="white"/>
</svg>
