<svg width="30" height="30" viewBox="0 0 30 30" fill="none" xmlns="http://www.w3.org/2000/svg">
<g clip-path="url(#clip0_23_759)">
<path d="M25.3125 1.87499C24.5666 1.87499 23.8512 2.17131 23.3238 2.69876C22.7963 3.2262 22.5 3.94157 22.5 4.68749C22.5 5.43342 22.7963 6.14879 23.3238 6.67623C23.8512 7.20368 24.5666 7.49999 25.3125 7.49999C26.0584 7.49999 26.7738 7.20368 27.3012 6.67623C27.8287 6.14879 28.125 5.43342 28.125 4.68749C28.125 3.94157 27.8287 3.2262 27.3012 2.69876C26.7738 2.17131 26.0584 1.87499 25.3125 1.87499ZM20.625 4.68749C20.6249 3.58768 21.0115 2.52284 21.7171 1.67926C22.4228 0.835693 23.4026 0.267113 24.4852 0.0730008C25.5677 -0.121111 26.6841 0.0716063 27.6389 0.617436C28.5937 1.16327 29.3262 2.02745 29.7082 3.05879C30.0902 4.09013 30.0974 5.22296 29.7285 6.25907C29.3596 7.29518 28.6382 8.1686 27.6904 8.72651C26.7426 9.28443 25.6288 9.49131 24.5439 9.31097C23.4589 9.13062 22.472 8.57453 21.7556 7.73999L9.15938 13.59C9.44884 14.5077 9.44884 15.4923 9.15938 16.41L21.7556 22.26C22.5128 21.3794 23.57 20.8112 24.7222 20.6656C25.8745 20.52 27.0398 20.8073 27.9922 21.4719C28.9447 22.1365 29.6165 23.131 29.8775 24.2627C30.1385 25.3944 29.9701 26.5827 29.4049 27.5973C28.8397 28.6119 27.9179 29.3806 26.8183 29.7543C25.7186 30.128 24.5194 30.0802 23.453 29.6201C22.3866 29.1601 21.529 28.3205 21.0463 27.2641C20.5637 26.2078 20.4904 25.0098 20.8406 23.9025L8.24438 18.0525C7.62082 18.7792 6.78967 19.2975 5.86272 19.5377C4.93577 19.7778 3.95751 19.7284 3.05952 19.3959C2.16153 19.0634 1.3869 18.4639 0.839835 17.678C0.292769 16.8921 -0.000488281 15.9576 -0.000488281 15C-0.000488281 14.0424 0.292769 13.1079 0.839835 12.322C1.3869 11.5361 2.16153 10.9366 3.05952 10.6041C3.95751 10.2716 4.93577 10.2222 5.86272 10.4623C6.78967 10.7025 7.62082 11.2208 8.24438 11.9475L20.8406 6.09749C20.6973 5.64125 20.6245 5.16574 20.625 4.68749ZM4.68751 12.1875C3.94159 12.1875 3.22622 12.4838 2.69877 13.0113C2.17133 13.5387 1.87501 14.2541 1.87501 15C1.87501 15.7459 2.17133 16.4613 2.69877 16.9887C3.22622 17.5162 3.94159 17.8125 4.68751 17.8125C5.43343 17.8125 6.1488 17.5162 6.67625 16.9887C7.20369 16.4613 7.50001 15.7459 7.50001 15C7.50001 14.2541 7.20369 13.5387 6.67625 13.0113C6.1488 12.4838 5.43343 12.1875 4.68751 12.1875ZM25.3125 22.5C24.5666 22.5 23.8512 22.7963 23.3238 23.3238C22.7963 23.8512 22.5 24.5666 22.5 25.3125C22.5 26.0584 22.7963 26.7738 23.3238 27.3012C23.8512 27.8287 24.5666 28.125 25.3125 28.125C26.0584 28.125 26.7738 27.8287 27.3012 27.3012C27.8287 26.7738 28.125 26.0584 28.125 25.3125C28.125 24.5666 27.8287 23.8512 27.3012 23.3238C26.7738 22.7963 26.0584 22.5 25.3125 22.5Z" fill="black"/>
</g>
<defs>
<clipPath id="clip0_23_759">
<rect width="30" height="30" fill="white"/>
</clipPath>
</defs>
</svg>
