<svg width="30" height="30" viewBox="0 0 30 30" fill="none" xmlns="http://www.w3.org/2000/svg">
<path class="iconeCompra" d="M14.9375 3.5625C15.9735 3.5625 16.9671 3.97405 17.6996 4.70661C18.4322 5.43918 18.8438 6.43275 18.8438 7.46875V8.25H11.0312V7.46875C11.0312 6.43275 11.4428 5.43918 12.1754 4.70661C12.9079 3.97405 13.9015 3.5625 14.9375 3.5625ZM20.4062 8.25V7.46875C20.4062 6.01835 19.8301 4.62735 18.8045 3.60176C17.7789 2.57617 16.3879 2 14.9375 2C13.4871 2 12.0961 2.57617 11.0705 3.60176C10.0449 4.62735 9.46875 6.01835 9.46875 7.46875V8.25H4V23.875C4 24.7038 4.32924 25.4987 4.91529 26.0847C5.50134 26.6708 6.2962 27 7.125 27H22.75C23.5788 27 24.3737 26.6708 24.9597 26.0847C25.5458 25.4987 25.875 24.7038 25.875 23.875V8.25H20.4062Z" fill="white"/>
</svg>
