<svg width="20" height="20" viewBox="0 0 20 20" fill="none" xmlns="http://www.w3.org/2000/svg">
<g clip-path="url(#clip0_23_637)">
<path d="M6.69248 6.39875L9.42248 0.99C9.47538 0.881555 9.55742 0.789975 9.65941 0.725511C9.76141 0.661047 9.87933 0.626245 9.99998 0.625C10.2287 0.625 10.4575 0.74625 10.5812 0.99L13.3112 6.39875L19.4337 7.26875C19.5861 7.2934 19.7253 7.36949 19.8284 7.48435C19.9314 7.59921 19.992 7.74591 20 7.9C20.0085 8.00272 19.9939 8.10604 19.9571 8.20232C19.9203 8.29861 19.8623 8.38539 19.7875 8.45625L15.3837 12.6512L16.4212 18.5637C16.5187 19.1175 15.9712 19.5512 15.4887 19.3037L9.99998 16.4837L4.51373 19.3037C4.4565 19.3339 4.39494 19.355 4.33123 19.3662C3.90373 19.4412 3.49623 19.0487 3.58123 18.5637L4.61873 12.6512L0.216234 8.45625C0.147791 8.3915 0.0933886 8.31337 0.0564034 8.22671C0.0194182 8.14005 0.000639957 8.04672 0.00123439 7.9525C0.00254348 7.81947 0.0392138 7.68918 0.107484 7.575C0.156523 7.49241 0.223592 7.42196 0.303679 7.36893C0.383767 7.3159 0.474802 7.28166 0.569984 7.26875L6.69248 6.39875ZM9.99998 15.0337C10.1009 15.0333 10.2004 15.0573 10.29 15.1037L14.8975 17.4712L14.03 12.525C14.0089 12.4112 14.0164 12.294 14.0518 12.1839C14.0871 12.0737 14.1492 11.974 14.2325 11.8937L17.8662 8.43125L12.8012 7.71125C12.6965 7.69491 12.5973 7.65369 12.5118 7.59105C12.4263 7.5284 12.3571 7.44617 12.31 7.35125L10.0012 2.77875L9.99998 2.7825V15.0337Z" fill="#FFB800"/>
</g>
<defs>
<clipPath id="clip0_23_637">
<rect width="20" height="20" fill="white"/>
</clipPath>
</defs>
</svg>
