<svg width="20" height="20" viewBox="0 0 20 20" fill="none" xmlns="http://www.w3.org/2000/svg">
<g clip-path="url(#clip0_23_639)">
<path d="M3.58253 18.5625C3.48503 19.1175 4.03253 19.5512 4.51503 19.3037L10.0025 16.4837L15.4888 19.3037C15.9713 19.5512 16.5188 19.1175 16.4213 18.5637L15.3838 12.6512L19.7863 8.45625C20.1988 8.06375 19.9863 7.34625 19.4338 7.26875L13.3113 6.39875L10.5813 0.989995C10.5293 0.880356 10.4472 0.787724 10.3447 0.722861C10.2421 0.657998 10.1232 0.623566 10.0019 0.623566C9.88055 0.623566 9.7617 0.657998 9.65914 0.722861C9.55658 0.787724 9.47453 0.880356 9.42253 0.989995L6.69253 6.4L0.570026 7.27C0.0187758 7.3475 -0.194974 8.065 0.216276 8.4575L4.62003 12.6525L3.58253 18.565V18.5625ZM9.71378 15.1037L5.10628 17.4712L5.97378 12.525C5.99466 12.4111 5.98698 12.2939 5.95142 12.1837C5.91586 12.0735 5.85354 11.9739 5.77003 11.8937L2.13753 8.43125L7.20253 7.71125C7.30723 7.6949 7.40649 7.65368 7.49197 7.59104C7.57745 7.5284 7.64666 7.44617 7.69378 7.35125L10 2.77875L12.3088 7.35125C12.3559 7.44617 12.4251 7.5284 12.5106 7.59104C12.5961 7.65368 12.6953 7.6949 12.8 7.71125L17.865 8.43L14.2325 11.8925C14.1488 11.9728 14.0864 12.0726 14.0508 12.183C14.0152 12.2934 14.0077 12.4109 14.0288 12.525L14.8963 17.4712L10.2888 15.1037C10.1998 15.0575 10.1009 15.0334 10.0007 15.0334C9.90035 15.0334 9.80278 15.0575 9.71378 15.1037Z" fill="#FFB800"/>
</g>
<defs>
<clipPath id="clip0_23_639">
<rect width="20" height="20" fill="white"/>
</clipPath>
</defs>
</svg>
