<svg width="25" height="26" viewBox="0 0 25 26" fill="none" xmlns="http://www.w3.org/2000/svg">
<path class="iconeList" fill-rule="evenodd" clip-rule="evenodd" d="M3.90625 19.25C3.90625 19.0428 3.98856 18.8441 4.13507 18.6976C4.28159 18.5511 4.4803 18.4688 4.6875 18.4688H20.3125C20.5197 18.4688 20.7184 18.5511 20.8649 18.6976C21.0114 18.8441 21.0938 19.0428 21.0938 19.25C21.0938 19.4572 21.0114 19.6559 20.8649 19.8024C20.7184 19.9489 20.5197 20.0312 20.3125 20.0312H4.6875C4.4803 20.0312 4.28159 19.9489 4.13507 19.8024C3.98856 19.6559 3.90625 19.4572 3.90625 19.25ZM3.90625 13C3.90625 12.7928 3.98856 12.5941 4.13507 12.4476C4.28159 12.3011 4.4803 12.2188 4.6875 12.2188H20.3125C20.5197 12.2188 20.7184 12.3011 20.8649 12.4476C21.0114 12.5941 21.0938 12.7928 21.0938 13C21.0938 13.2072 21.0114 13.4059 20.8649 13.5524C20.7184 13.6989 20.5197 13.7812 20.3125 13.7812H4.6875C4.4803 13.7812 4.28159 13.6989 4.13507 13.5524C3.98856 13.4059 3.90625 13.2072 3.90625 13ZM3.90625 6.75C3.90625 6.5428 3.98856 6.34409 4.13507 6.19757C4.28159 6.05106 4.4803 5.96875 4.6875 5.96875H20.3125C20.5197 5.96875 20.7184 6.05106 20.8649 6.19757C21.0114 6.34409 21.0938 6.5428 21.0938 6.75C21.0938 6.9572 21.0114 7.15591 20.8649 7.30243C20.7184 7.44894 20.5197 7.53125 20.3125 7.53125H4.6875C4.4803 7.53125 4.28159 7.44894 4.13507 7.30243C3.98856 7.15591 3.90625 6.9572 3.90625 6.75Z" fill="white"/>
</svg>
