<svg width="20" height="20" viewBox="0 0 20 20" fill="none" xmlns="http://www.w3.org/2000/svg">
<path d="M14.8962 14.6374C14.5585 14.6382 14.2241 14.5721 13.9122 14.4429C13.6002 14.3138 13.317 14.1241 13.0787 13.8849L10.4537 11.2599C10.3607 11.1717 10.2375 11.1224 10.1093 11.1224C9.98112 11.1224 9.85785 11.1717 9.76492 11.2599L7.12992 13.8949C6.89172 14.1342 6.60846 14.324 6.29649 14.4531C5.98453 14.5823 5.65006 14.6483 5.31242 14.6474H4.79492L8.11992 17.9724C9.15742 19.0099 10.8412 19.0099 11.8787 17.9724L15.2124 14.6374H14.8962ZM5.31242 5.35245C5.99992 5.35245 6.64492 5.61994 7.12992 6.10494L9.76492 8.73995C9.8102 8.7853 9.86398 8.82128 9.92318 8.84583C9.98238 8.87038 10.0458 8.88302 10.1099 8.88302C10.174 8.88302 10.2375 8.87038 10.2967 8.84583C10.3559 8.82128 10.4096 8.7853 10.4549 8.73995L13.0799 6.11495C13.318 5.8758 13.601 5.68617 13.9128 5.55701C14.2245 5.42786 14.5587 5.36173 14.8962 5.36245H15.2124L11.8787 2.0287C11.3801 1.53048 10.7041 1.25061 9.9993 1.25061C9.29447 1.25061 8.61848 1.53048 8.11992 2.0287L4.79492 5.3537L5.31242 5.35245Z" fill="#4BB8A9"/>
<path d="M17.9711 8.11994L15.9561 6.10494C15.9109 6.12352 15.8625 6.13327 15.8136 6.13369H14.8974C14.4236 6.13369 13.9599 6.32619 13.6261 6.66119L11.0011 9.28619C10.8844 9.40354 10.7456 9.49667 10.5928 9.56021C10.4399 9.62375 10.276 9.65647 10.1105 9.65647C9.94496 9.65647 9.78107 9.62375 9.62822 9.56021C9.47538 9.49667 9.3366 9.40354 9.21986 9.28619L6.58486 6.64994C6.2468 6.31327 5.78948 6.12369 5.31236 6.12244H4.18736C4.14073 6.12207 4.09455 6.11317 4.05111 6.09619L2.02861 8.11994C0.991113 9.15744 0.991113 10.8412 2.02861 11.8799L4.05111 13.9024C4.09407 13.8852 4.13982 13.8758 4.18611 13.8749H5.31236C5.78736 13.8749 6.24986 13.6837 6.58486 13.3487L9.21861 10.7124C9.45893 10.4836 9.77804 10.356 10.1099 10.356C10.4417 10.356 10.7608 10.4836 11.0011 10.7124L13.6261 13.3374C13.9599 13.6724 14.4236 13.8637 14.8974 13.8637H15.8136C15.8636 13.8637 15.9124 13.8762 15.9561 13.8937L17.9711 11.8787C19.0086 10.8412 19.0086 9.15744 17.9711 8.11994Z" fill="#4BB8A9"/>
</svg>
