<svg width="50" height="100" viewBox="0 0 50 100" fill="none" xmlns="http://www.w3.org/2000/svg">
<rect width="50" height="100" fill="black" fill-opacity="0.25"/>
<path fill-rule="evenodd" clip-rule="evenodd" d="M15.4196 31.8507C15.5523 31.7177 15.7099 31.6122 15.8834 31.5402C16.0569 31.4682 16.2429 31.4311 16.4308 31.4311C16.6186 31.4311 16.8046 31.4682 16.9781 31.5402C17.1517 31.6122 17.3093 31.7177 17.4419 31.8507L34.5804 48.9892C34.7134 49.1219 34.8189 49.2795 34.8909 49.453C34.9629 49.6265 35 49.8125 35 50.0004C35 50.1882 34.9629 50.3742 34.8909 50.5478C34.8189 50.7213 34.7134 50.8789 34.5804 51.0115L17.4419 68.15C17.1738 68.4182 16.81 68.5689 16.4308 68.5689C16.0515 68.5689 15.6878 68.4182 15.4196 68.15C15.1514 67.8819 15.0007 67.5181 15.0007 67.1389C15.0007 66.7596 15.1514 66.3959 15.4196 66.1277L31.5498 50.0004L15.4196 33.8731C15.2866 33.7404 15.1811 33.5828 15.1091 33.4093C15.0371 33.2358 15 33.0498 15 32.8619C15 32.674 15.0371 32.488 15.1091 32.3145C15.1811 32.141 15.2866 31.9834 15.4196 31.8507Z" fill="white"/>
</svg>
