<svg class="iconeSetaEsquerda" width="50" height="50" viewBox="0 0 50 50" fill="none" xmlns="http://www.w3.org/2000/svg">
<path class="iconeSetaEsquerda" fill-rule="evenodd" clip-rule="evenodd" d="M35.4812 5.14374C35.6267 5.28888 35.7422 5.4613 35.821 5.65113C35.8997 5.84096 35.9403 6.04446 35.9403 6.24999C35.9403 6.45551 35.8997 6.65901 35.821 6.84884C35.7422 7.03867 35.6267 7.21109 35.4812 7.35624L17.8344 25L35.4812 42.6437C35.7746 42.9371 35.9395 43.3351 35.9395 43.75C35.9395 44.1649 35.7746 44.5628 35.4812 44.8562C35.1878 45.1496 34.7899 45.3145 34.375 45.3145C33.9601 45.3145 33.5621 45.1496 33.2687 44.8562L14.5187 26.1062C14.3732 25.9611 14.2578 25.7887 14.179 25.5988C14.1002 25.409 14.0597 25.2055 14.0597 25C14.0597 24.7945 14.1002 24.591 14.179 24.4011C14.2578 24.2113 14.3732 24.0389 14.5187 23.8937L33.2687 5.14374C33.4139 4.99823 33.5863 4.88278 33.7761 4.80401C33.966 4.72524 34.1695 4.68469 34.375 4.68469C34.5805 4.68469 34.784 4.72524 34.9738 4.80401C35.1637 4.88278 35.3361 4.99823 35.4812 5.14374Z" fill="#1556A3"/>
</svg>
