<svg width="20" height="20" viewBox="0 0 20 20" fill="none" xmlns="http://www.w3.org/2000/svg">
<g clip-path="url(#clip0_101_4014)">
<path d="M6.2825 18.75C13.83 18.75 17.9587 12.4963 17.9587 7.08251C17.9604 6.90668 17.9579 6.73084 17.9513 6.55501C18.7548 5.97282 19.4485 5.25245 20 4.42751C19.2489 4.75785 18.4533 4.97602 17.6388 5.07501C18.497 4.56215 19.1398 3.75503 19.4475 2.80376C18.6416 3.28216 17.759 3.61753 16.8387 3.79501C16.2202 3.13629 15.4018 2.69991 14.5101 2.55346C13.6185 2.40701 12.7034 2.55866 11.9067 2.98493C11.1099 3.4112 10.476 4.0883 10.1031 4.91134C9.73012 5.73438 9.63897 6.65743 9.84375 7.53751C8.2121 7.45609 6.61581 7.0324 5.15854 6.29397C3.70126 5.55553 2.41559 4.51886 1.385 3.25126C0.861976 4.15519 0.702438 5.22424 0.938759 6.24149C1.17508 7.25874 1.78956 8.14798 2.6575 8.72876C2.00676 8.70774 1.37024 8.53297 0.8 8.21876V8.27501C0.801591 9.22174 1.12977 10.1389 1.72915 10.8718C2.32853 11.6046 3.1624 12.1082 4.09 12.2975C3.73784 12.3946 3.37404 12.4429 3.00875 12.4413C2.75115 12.4439 2.49396 12.4201 2.24125 12.37C2.50299 13.1854 3.01347 13.8983 3.70105 14.4088C4.38862 14.9193 5.21877 15.2016 6.075 15.2163C4.62013 16.3575 2.82406 16.9769 0.975 16.975C0.649123 16.9775 0.323433 16.9587 0 16.9188C1.87678 18.1156 4.05658 18.751 6.2825 18.75Z" fill="white"/>
</g>
<defs>
<clipPath id="clip0_101_4014">
<rect width="20" height="20" fill="white"/>
</clipPath>
</defs>
</svg>
